<svg width="14" height="14" viewBox="0 0 14 14" fill="none" xmlns="http://www.w3.org/2000/svg">
<g clip-path="url(#clip0_727_20)">
<path d="M7.0043 0.873627C3.62461 0.873627 0.884766 3.61347 0.884766 6.99316C0.884766 10.3728 3.62461 13.1113 7.0043 13.1113C10.384 13.1113 13.1238 10.3715 13.1238 6.99179C13.1238 3.6121 10.384 0.873627 7.0043 0.873627ZM9.75781 8.95917C9.97519 9.17656 9.97519 9.52929 9.75781 9.74531C9.54043 9.96269 9.1877 9.96269 8.97168 9.74531L7.0043 7.77929L5.03691 9.74531C4.81953 9.96269 4.4668 9.96269 4.25078 9.74531C4.0334 9.52792 4.0334 9.17519 4.25078 8.95917L6.21816 6.99179L4.25078 5.02578C4.0334 4.80839 4.0334 4.45566 4.25078 4.23964C4.46816 4.02226 4.8209 4.02226 5.03691 4.23964L7.0043 6.20703L8.97031 4.23828C9.18769 4.02089 9.54043 4.02089 9.75644 4.23828C9.97383 4.45566 9.97383 4.80839 9.75644 5.02441L7.79043 6.99179L9.75781 8.95917Z" fill="url(#paint0_linear_727_20)"/>
</g>
<defs>
<linearGradient id="paint0_linear_727_20" x1="7.0043" y1="0.873627" x2="7.0043" y2="13.1113" gradientUnits="userSpaceOnUse">
<stop stop-color="#5AC27C"/>
<stop offset="1" stop-color="#B2E235"/>
</linearGradient>
<clipPath id="clip0_727_20">
<rect width="14" height="14" fill="white"/>
</clipPath>
</defs>
</svg>
